<svg version="1.1" id="Layer_1" xmlns="http://www.w3.org/2000/svg" xmlns:xlink="http://www.w3.org/1999/xlink" x="0px" y="0px"
	 width="100%" viewBox="0 0 3200 2145" enable-background="new 0 0 3200 2145" xml:space="preserve">
<path fill="#000000" opacity="1.000000" stroke="none" 
	d="
M1952.000000,2148.000000 
	C1301.333374,2148.000000 651.666687,2148.000000 2.000000,2148.000000 
	C2.000000,1432.666626 2.000000,717.333313 2.000000,2.000000 
	C1068.666626,2.000000 2135.333252,2.000000 3202.000000,2.000000 
	C3202.000000,717.333313 3202.000000,1432.666626 3202.000000,2148.000000 
	C2785.666748,2148.000000 2369.333252,2148.000000 1952.000000,2148.000000 
M2018.013428,1023.011230 
	C2031.950317,1036.939453 2049.078125,1040.152222 2067.713623,1037.222778 
	C2092.620117,1033.307983 2114.038574,1007.271729 2113.875000,981.109314 
	C2113.329346,893.799377 2113.668213,806.483887 2113.668213,719.170532 
	C2113.668213,715.626038 2113.668213,712.081543 2113.668213,707.398499 
	C2116.314697,708.624817 2117.790771,709.181152 2119.143066,709.954041 
	C2157.912109,732.114197 2204.313232,701.553040 2203.872559,659.180664 
	C2203.127686,587.538147 2203.699219,515.882202 2203.610352,444.232025 
	C2203.603027,438.294678 2203.085205,432.317078 2202.288574,426.428040 
	C2196.130615,380.908997 2160.616699,342.015961 2115.516846,331.465576 
	C2108.184082,329.750122 2102.684082,330.409729 2096.239502,335.188202 
	C2071.885742,353.245270 2044.391846,363.563324 2013.836182,363.904968 
	C1981.585938,364.265533 1952.469727,353.692291 1925.709839,336.307922 
	C1920.184570,332.718445 1914.829590,330.865082 1908.136841,330.884308 
	C1835.820679,331.091705 1763.503540,330.999695 1691.186768,331.069916 
	C1686.552734,331.074432 1681.854858,331.371918 1677.295532,332.161407 
	C1637.668701,339.022858 1617.049438,383.893219 1638.897217,416.470978 
	C1651.086792,434.647034 1668.901733,443.038025 1690.815918,443.011627 
	C1751.802002,442.938171 1812.787964,442.972717 1873.774048,443.002869 
	C1877.598511,443.004761 1881.422607,443.335449 1885.666992,443.532654 
	C1885.666992,448.756012 1885.666870,452.737335 1885.666870,456.718658 
	C1885.666870,630.678894 1885.787109,804.639343 1885.488647,978.599060 
	C1885.457397,996.845032 1891.447632,1011.176575 1904.495605,1023.770813 
	C1920.288574,1039.014648 1947.067139,1041.510742 1964.057007,1034.188599 
	C1982.217529,1026.361572 1993.280640,1012.333557 1999.354980,992.491455 
	C2003.346924,1004.322815 2008.000610,1014.531067 2018.013428,1023.011230 
M505.666595,1533.000122 
	C505.666595,1509.504028 505.666595,1486.007935 505.666595,1461.700073 
	C578.602722,1461.700073 650.099915,1461.700073 721.492859,1461.700073 
	C723.379639,1445.069702 722.703918,1310.541504 720.846313,1303.740479 
	C515.354614,1303.740479 309.911835,1303.740479 104.102386,1303.740479 
	C104.102386,1356.622192 104.102386,1408.794434 104.102386,1462.075684 
	C175.956635,1462.075684 247.387070,1462.075684 319.667877,1462.075684 
	C319.667877,1557.750488 319.667877,1652.318481 319.667908,1746.886475 
	C319.667908,1841.399292 319.667877,1935.912109 319.667877,2030.313477 
	C382.292023,2030.313477 443.470398,2030.313477 505.666595,2030.313477 
	C505.666595,1864.760010 505.666595,1699.880127 505.666595,1533.000122 
M1123.222046,2017.892700 
	C1129.345215,2021.229004 1135.293579,2024.950317 1141.625000,2027.828369 
	C1159.387695,2035.902954 1178.267456,2039.444336 1197.635010,2040.613037 
	C1219.607178,2041.939087 1241.426636,2040.609253 1264.042114,2036.773804 
	C1274.202759,1991.998291 1284.360596,1947.235596 1294.747437,1901.464111 
	C1285.961426,1902.426392 1278.781372,1903.910278 1271.610352,1903.867310 
	C1250.225830,1903.739014 1241.366943,1895.748901 1237.854614,1878.439819 
	C1235.826538,1868.445435 1234.586060,1858.124390 1234.479736,1847.934937 
	C1233.941162,1796.307617 1233.856812,1744.675171 1233.684082,1693.044434 
	C1233.604736,1669.348755 1230.346558,1646.100342 1224.459595,1623.174316 
	C1209.310425,1564.178223 1171.341553,1528.032104 1113.232178,1512.127563 
	C1083.199829,1503.907715 1052.390503,1501.305786 1021.444275,1501.202148 
	C1002.204041,1501.137695 982.876465,1502.211548 963.730164,1504.165649 
	C923.716003,1508.249512 885.013062,1517.425293 849.792053,1537.891968 
	C820.720703,1554.785156 798.331848,1577.568481 786.956848,1609.978516 
	C780.779053,1627.580322 780.950195,1645.567139 782.290588,1664.049194 
	C839.627258,1674.735718 896.265625,1685.292114 953.923645,1696.038452 
	C951.211243,1681.951904 952.363159,1669.635620 955.832031,1657.368530 
	C959.956970,1642.781616 969.773254,1634.503418 983.814209,1630.267090 
	C995.259827,1626.813599 1006.958435,1627.385254 1018.500732,1628.546997 
	C1037.110229,1630.419922 1049.566772,1640.257812 1055.687622,1658.480713 
	C1060.109131,1671.644043 1060.735352,1685.147827 1061.586426,1698.689331 
	C1062.035767,1705.837036 1061.666016,1713.036133 1061.666016,1720.407959 
	C1056.292114,1721.052734 1052.370850,1721.745605 1048.423950,1721.956909 
	C1034.157349,1722.721069 1019.878784,1723.260132 1005.610779,1724.000122 
	C977.332581,1725.466675 949.400818,1729.530884 921.892883,1736.158936 
	C888.089905,1744.303711 855.520996,1755.737427 826.935303,1776.158813 
	C800.599609,1794.972656 780.086792,1818.603516 770.940735,1850.361328 
	C765.213135,1870.249146 763.010010,1890.493286 765.315918,1911.404175 
	C767.498718,1931.197754 772.182861,1949.948608 781.868042,1967.303345 
	C800.060303,1999.902222 828.014709,2020.862793 862.441589,2033.802734 
	C882.824463,2041.463989 904.019592,2044.733643 925.741150,2046.322876 
	C953.108032,2048.325195 979.577148,2044.998413 1005.205627,2035.800781 
	C1034.540527,2025.273071 1057.548218,2005.989014 1076.526123,1981.608765 
	C1079.134399,1978.257935 1081.774170,1974.931641 1084.610107,1971.326172 
	C1100.515259,1998.415405 1106.366577,2005.518311 1123.222046,2017.892700 
M1655.716187,2042.576660 
	C1751.137695,2028.841187 1805.077759,1966.039307 1827.687134,1879.536377 
	C1774.659302,1869.074829 1721.683350,1858.623535 1668.473999,1848.126099 
	C1667.624634,1855.062012 1667.351807,1861.369507 1666.012085,1867.441284 
	C1662.396973,1883.826538 1655.532593,1898.850708 1640.634888,1907.649658 
	C1617.318481,1921.421021 1592.458496,1921.914185 1567.774658,1911.534790 
	C1546.766357,1902.701050 1536.617920,1884.453735 1530.045044,1863.877808 
	C1523.114868,1842.183472 1521.104248,1819.645264 1520.532227,1797.101807 
	C1520.035278,1777.516602 1520.687378,1757.855835 1521.839844,1738.287842 
	C1523.151733,1716.010742 1527.020874,1694.151245 1535.743286,1673.334106 
	C1545.976562,1648.911011 1563.698853,1633.997070 1590.079834,1630.555298 
	C1622.217651,1626.362671 1647.635986,1640.914917 1655.110596,1673.676270 
	C1657.850952,1685.687500 1658.983521,1697.922607 1656.680420,1710.275146 
	C1656.113159,1713.317383 1656.595947,1716.555176 1656.595947,1720.122192 
	C1713.450928,1708.598022 1769.402954,1697.256836 1825.184814,1685.950195 
	C1826.689209,1669.276611 1826.766113,1653.776245 1824.127686,1638.221069 
	C1817.754028,1600.643921 1798.949463,1570.680298 1769.116455,1547.475586 
	C1738.617310,1523.752930 1703.022339,1512.255981 1665.547607,1506.135864 
	C1638.291260,1501.684692 1610.824341,1500.396484 1583.097290,1501.783081 
	C1545.578857,1503.659302 1509.088867,1509.579956 1474.244751,1523.967651 
	C1431.181152,1541.749390 1398.264160,1571.082397 1375.687500,1611.799561 
	C1354.485596,1650.037598 1345.447266,1691.818481 1342.599243,1734.874512 
	C1340.713989,1763.375732 1340.652100,1792.003906 1343.507568,1820.605957 
	C1347.065918,1856.248291 1354.519531,1890.710327 1369.597046,1923.386719 
	C1391.164062,1970.126953 1425.298462,2003.903320 1472.686401,2024.124146 
	C1499.190308,2035.433716 1526.955322,2041.654175 1555.562012,2044.674072 
	C1588.473022,2048.148193 1621.271118,2047.904907 1655.716187,2042.576660 
M2774.736572,2029.117065 
	C2784.955566,2010.835327 2795.231934,1992.585449 2805.376709,1974.262695 
	C2815.400635,1956.158203 2824.893799,1937.744873 2836.318115,1919.308105 
	C2858.473389,1954.831787 2879.872070,1988.896484 2900.940430,2023.164185 
	C2904.477539,2028.917114 2908.423584,2031.186401 2915.319092,2031.152832 
	C2973.640869,2030.869263 3031.964355,2030.999634 3090.287354,2030.967896 
	C3093.451904,2030.966187 3096.616211,2030.628784 3101.487061,2030.349976 
	C3046.014404,1940.554810 2991.407715,1852.161255 2936.822021,1763.801758 
	C2950.959473,1742.827515 2964.658936,1722.414795 2978.451660,1702.064819 
	C2992.257080,1681.696289 3006.175049,1661.403809 3020.007812,1641.053467 
	C3034.025146,1620.431641 3048.046387,1599.812256 3061.978027,1579.132446 
	C3075.552002,1558.984253 3089.603027,1539.138062 3102.914551,1518.030396 
	C3100.375732,1517.496094 3099.409668,1517.115479 3098.443359,1517.114624 
	C3041.787354,1517.065796 2985.131104,1517.075073 2928.475098,1516.976685 
	C2923.994629,1516.968994 2921.376953,1518.535645 2919.010254,1522.577759 
	C2902.885986,1550.117065 2886.440918,1577.468872 2870.064697,1604.860474 
	C2865.221436,1612.961182 2860.265137,1620.994751 2854.774414,1630.023560 
	C2852.232910,1626.046387 2850.416016,1623.330078 2848.725098,1620.537720 
	C2829.435791,1588.684692 2810.042725,1556.893066 2791.002686,1524.891479 
	C2787.525146,1519.046753 2783.572510,1516.825317 2776.672607,1516.858521 
	C2718.350830,1517.139404 2660.027344,1517.010498 2601.704346,1517.040894 
	C2598.531738,1517.042480 2595.359131,1517.366333 2590.489990,1517.633057 
	C2645.173096,1606.692139 2699.010254,1694.372803 2752.946289,1782.214966 
	C2734.918457,1810.183105 2717.307617,1837.569702 2699.628418,1864.912476 
	C2681.754150,1892.558105 2663.723877,1920.103394 2645.924805,1947.797363 
	C2628.447998,1974.990356 2610.414551,2001.841797 2592.508057,2030.990845 
	C2597.681885,2030.990845 2600.636230,2030.990845 2603.590576,2030.990845 
	C2657.247803,2030.990967 2710.904785,2031.002319 2764.562012,2030.961182 
	C2767.531494,2030.958984 2770.500488,2030.523438 2774.736572,2029.117065 
M2110.656006,1881.301636 
	C2110.326660,1876.659302 2109.714355,1872.017090 2109.710205,1867.374512 
	C2109.647949,1797.055420 2109.665771,1726.736206 2109.664551,1656.417114 
	C2109.664551,1653.200562 2109.664307,1649.984009 2109.664307,1645.666992 
	C2156.890137,1645.666992 2202.985596,1645.666992 2249.089600,1645.666992 
	C2249.089600,1602.374634 2249.089600,1560.220093 2249.089600,1517.006958 
	C2233.268311,1517.006958 2218.004395,1517.006958 2202.740723,1517.006958 
	C2187.077148,1517.006958 2171.413818,1517.028198 2155.750244,1517.000732 
	C2140.594238,1516.974121 2125.438232,1516.897705 2109.438965,1516.840088 
	C2109.438965,1469.230591 2109.438965,1423.055664 2109.438965,1376.587891 
	C2055.421875,1376.587891 2002.301514,1376.587891 1948.484131,1376.587891 
	C1946.854614,1400.241821 1945.467041,1423.379761 1943.611694,1446.480103 
	C1941.741211,1469.768433 1941.097778,1493.184204 1938.183594,1517.283447 
	C1916.049805,1517.283447 1895.204712,1517.283447 1874.514893,1517.283447 
	C1872.591187,1533.778442 1873.305176,1638.747559 1875.503662,1646.443359 
	C1895.433960,1646.443359 1915.618164,1646.443359 1936.335815,1646.443359 
	C1936.335815,1650.921143 1936.335693,1654.548706 1936.335693,1658.176392 
	C1936.335693,1726.162598 1936.131348,1794.150024 1936.499023,1862.134277 
	C1936.577637,1876.666870 1937.951538,1891.305298 1940.108887,1905.688110 
	C1943.586548,1928.875244 1950.876099,1950.951660 1963.537231,1970.927734 
	C1985.128418,2004.993164 2016.457642,2025.779541 2055.031250,2035.288452 
	C2092.973633,2044.641968 2131.498779,2044.851196 2169.880859,2037.651733 
	C2215.134521,2029.163330 2249.160889,2004.670776 2271.405518,1964.230957 
	C2282.522217,1944.021118 2289.930664,1922.335449 2295.937500,1900.146118 
	C2297.115234,1895.795776 2298.010742,1891.368896 2299.118164,1886.626465 
	C2256.500977,1871.678955 2214.950195,1856.531372 2172.472656,1842.075806 
	C2172.481445,1857.953857 2170.133057,1871.995728 2164.691895,1885.356689 
	C2159.437988,1898.258301 2149.396484,1904.750244 2136.891113,1903.984253 
	C2123.212402,1903.146362 2115.994141,1897.131836 2110.656006,1881.301636 
M1233.000000,746.000000 
	C1414.658813,746.000000 1596.317871,745.827698 1777.976074,746.159363 
	C1810.569214,746.218872 1836.927734,719.499573 1836.559326,687.408875 
	C1835.805664,621.753174 1836.333252,556.082764 1836.333130,490.418365 
	C1836.333130,487.200989 1836.333252,483.983582 1836.333252,480.456757 
	C1817.685303,480.456757 1800.180054,480.456757 1781.804199,480.456757 
	C1781.804199,551.095276 1781.804199,621.285278 1781.804199,691.236084 
	C1771.890259,693.886414 1141.181885,695.259521 1067.314941,692.977051 
	C1064.434937,692.888062 1061.570923,692.282349 1058.375366,691.876221 
	C1058.375366,521.970337 1058.375366,352.882935 1058.375366,183.577789 
	C1299.607178,183.577789 1540.131348,183.577789 1781.666626,183.577789 
	C1781.666626,202.720062 1781.666504,221.293304 1781.666504,239.866547 
	C1781.666504,258.737244 1781.666626,277.607971 1781.666626,296.246429 
	C1800.637695,296.246429 1818.121216,296.246429 1835.826050,296.246429 
	C1836.037231,294.247894 1836.291260,292.960175 1836.292236,291.672241 
	C1836.319824,254.673599 1836.377197,217.674759 1836.246338,180.676590 
	C1836.232544,176.768631 1835.324585,172.809113 1834.427368,168.967880 
	C1828.574585,143.910919 1804.228394,128.782883 1781.337158,128.875031 
	C1695.008301,129.222504 1608.677124,129.016830 1522.346802,129.018250 
	C1518.426025,129.018311 1514.505249,129.018265 1510.828857,129.018265 
	C1509.913940,126.591225 1509.295044,125.068314 1508.761719,123.515999 
	C1504.240723,110.353096 1495.032227,103.144630 1481.290283,103.086159 
	C1440.625732,102.913147 1399.960083,102.994644 1359.294800,103.054321 
	C1351.272095,103.066101 1343.985718,105.576225 1339.069824,112.125465 
	C1335.400269,117.014099 1332.715088,122.641663 1328.955933,129.018280 
	C1326.199707,129.018280 1322.233521,129.018280 1318.267212,129.018265 
	C1232.270264,129.018036 1146.273193,129.057770 1060.276367,128.952652 
	C1052.117554,128.942688 1044.620728,130.728195 1037.020386,133.619659 
	C1019.807739,140.168091 1003.289368,162.272217 1003.358582,183.463531 
	C1003.910522,352.455811 1003.654846,521.450684 1003.728882,690.444763 
	C1003.730896,695.041260 1004.000549,699.826416 1005.260742,704.202393 
	C1012.392334,728.966309 1035.045288,745.927734 1061.005981,745.970886 
	C1117.670532,746.065063 1174.335327,746.000000 1233.000000,746.000000 
M2527.667480,1603.000122 
	C2527.667480,1574.753174 2527.667480,1546.506104 2527.667480,1518.450317 
	C2516.289307,1516.046875 2361.711182,1516.548340 2354.973145,1518.774658 
	C2354.973145,1689.222778 2354.973145,1859.618896 2354.973145,2030.312500 
	C2412.739746,2030.312500 2469.863525,2030.312500 2527.667480,2030.312500 
	C2527.667480,1888.078979 2527.667480,1746.539551 2527.667480,1603.000122 
M2124.490967,233.324020 
	C2124.817383,222.728363 2126.650146,211.925034 2125.222900,201.571152 
	C2116.769287,140.252716 2066.012939,101.683205 2012.722046,101.656227 
	C1979.954956,101.639641 1951.755371,112.610588 1929.431396,135.960724 
	C1899.310791,167.465881 1890.343384,205.399658 1901.656494,247.474030 
	C1916.167114,301.439819 1967.844849,337.551819 2027.851074,329.295197 
	C2078.731689,322.294220 2115.956055,284.545471 2124.490967,233.324020 
M1309.942139,531.066040 
	C1316.719116,524.764954 1321.484863,517.592346 1321.926025,507.835602 
	C1322.032471,505.478699 1324.536011,502.627502 1326.702148,501.061798 
	C1343.951050,488.594147 1361.353882,476.337860 1378.808472,464.158630 
	C1380.546387,462.945984 1383.018555,461.918732 1385.021729,462.114929 
	C1391.200317,462.720032 1397.316650,463.959778 1404.173706,465.068878 
	C1404.486572,465.453613 1405.386475,466.430481 1406.142090,467.508667 
	C1431.877441,504.230255 1457.540283,541.002991 1483.416504,577.625000 
	C1485.915283,581.161621 1486.907227,584.373474 1486.434692,588.640381 
	C1485.279663,599.070679 1488.569824,608.074280 1495.484863,616.093018 
	C1505.319946,627.497803 1516.243286,629.937866 1531.640015,625.405579 
	C1544.468506,621.629272 1553.123779,611.884460 1554.119873,597.717346 
	C1554.471313,592.719543 1556.371216,589.865479 1560.128174,587.289612 
	C1572.197510,579.014587 1584.497803,571.024048 1596.070557,562.096313 
	C1603.319824,556.503906 1610.589600,553.752075 1619.735352,554.948242 
	C1641.707397,557.821960 1660.575806,534.330811 1654.110718,511.816162 
	C1649.602295,496.115051 1635.586060,485.652588 1619.013550,487.016052 
	C1600.546997,488.535278 1587.340454,505.472565 1588.428345,518.241150 
	C1588.959229,524.471069 1586.145020,527.921082 1581.375000,531.150513 
	C1569.258057,539.353943 1557.173828,547.640564 1545.527466,556.487671 
	C1540.609131,560.223816 1536.257446,561.972717 1530.247314,559.719116 
	C1527.570312,558.715271 1524.304199,558.820129 1521.363770,559.080139 
	C1515.761230,559.575562 1512.407959,557.377991 1509.146240,552.661133 
	C1484.399902,516.874573 1459.341309,481.303406 1434.265503,445.745911 
	C1431.461792,441.770172 1430.740601,438.226776 1431.364624,433.094635 
	C1434.050171,411.009949 1417.269653,397.114594 1404.491089,396.012024 
	C1382.753784,394.136444 1365.619385,406.946899 1364.561035,426.770721 
	C1364.267212,432.273590 1362.083496,435.104858 1358.036987,437.891663 
	C1344.069946,447.510712 1330.184570,457.252106 1316.398438,467.128815 
	C1309.832397,471.832764 1303.585938,476.762939 1294.964722,471.573486 
	C1293.679199,470.799591 1291.674683,470.864716 1290.062744,471.053558 
	C1284.721680,471.679199 1281.649658,469.054871 1278.709717,464.836914 
	C1243.170044,413.849060 1207.511841,362.943542 1171.717773,312.134003 
	C1168.796021,307.986572 1167.995728,304.623840 1169.328247,299.433472 
	C1175.423218,275.691589 1156.577148,255.986435 1136.804810,257.694244 
	C1123.072266,258.880341 1113.137329,264.589111 1107.063232,276.235901 
	C1101.161377,287.552490 1101.766724,299.379456 1108.572388,310.457672 
	C1115.664185,322.001984 1126.220459,327.112488 1139.462036,326.122131 
	C1140.578247,327.536591 1141.448242,328.537109 1142.207397,329.615570 
	C1179.127930,382.065521 1215.977417,434.565796 1253.071533,486.892731 
	C1255.943604,490.944275 1256.390381,494.714050 1255.304565,498.967346 
	C1253.194092,507.234375 1255.172974,514.918823 1259.212891,521.861450 
	C1270.129761,540.621887 1289.821899,544.484070 1309.942139,531.066040 
M2515.524902,1275.521973 
	C2513.641846,1273.638672 2511.720459,1271.791992 2509.881104,1269.866821 
	C2476.105713,1234.513184 2417.141113,1233.720825 2382.272461,1261.308228 
	C2356.749756,1281.501099 2343.245117,1307.345825 2343.859131,1339.594238 
	C2344.999268,1399.476440 2399.454834,1442.043579 2454.591309,1434.082520 
	C2494.440430,1428.328735 2529.018311,1396.768066 2536.416992,1356.077637 
	C2541.803467,1326.454346 2534.543457,1300.208740 2515.524902,1275.521973 
M1362.495483,827.494507 
	C1303.372559,886.617371 1244.249390,945.739990 1185.127686,1004.863953 
	C1183.243530,1006.748230 1181.193115,1008.501404 1179.529663,1010.565063 
	C1174.280640,1017.077026 1175.098145,1026.839722 1181.276123,1033.281250 
	C1187.520264,1039.791748 1198.366821,1041.232788 1204.734497,1036.150513 
	C1208.621460,1033.048096 1212.363159,1029.720459 1215.880615,1026.204590 
	C1281.845825,960.269226 1347.765869,894.288452 1413.707031,828.328979 
	C1415.798462,826.236877 1418.013428,824.268188 1420.507446,821.925781 
	C1422.694824,823.966614 1424.640259,825.675354 1426.467651,827.502136 
	C1491.487549,892.501831 1556.486572,957.522583 1621.528198,1022.500610 
	C1625.991089,1026.959106 1630.580200,1031.333008 1635.470337,1035.303223 
	C1637.654663,1037.076538 1640.632935,1038.374268 1643.419434,1038.810059 
	C1652.151611,1040.175781 1659.804321,1035.993652 1663.188110,1028.584106 
	C1666.191528,1022.007019 1664.442261,1013.428284 1658.727295,1007.736450 
	C1583.927490,933.238525 1509.012573,858.855469 1434.432617,784.138245 
	C1426.638672,776.330078 1414.107422,774.707031 1405.708740,783.928284 
	C1392.265137,798.688599 1377.628052,812.361816 1362.495483,827.494507 
z"/>
<path fill="#15ECA3" opacity="1.000000" stroke="none" 
	d="
M2017.504395,1022.501709 
	C2008.000610,1014.531067 2003.346924,1004.322815 1999.354980,992.491455 
	C1993.280640,1012.333557 1982.217529,1026.361572 1964.057007,1034.188599 
	C1947.067139,1041.510742 1920.288574,1039.014648 1904.495605,1023.770813 
	C1891.447632,1011.176575 1885.457397,996.845032 1885.488647,978.599060 
	C1885.787109,804.639343 1885.666870,630.678894 1885.666870,456.718658 
	C1885.666870,452.737335 1885.666992,448.756012 1885.666992,443.532654 
	C1881.422607,443.335449 1877.598511,443.004761 1873.774048,443.002869 
	C1812.787964,442.972717 1751.802002,442.938171 1690.815918,443.011627 
	C1668.901733,443.038025 1651.086792,434.647034 1638.897217,416.470978 
	C1617.049438,383.893219 1637.668701,339.022858 1677.295532,332.161407 
	C1681.854858,331.371918 1686.552734,331.074432 1691.186768,331.069916 
	C1763.503540,330.999695 1835.820679,331.091705 1908.136841,330.884308 
	C1914.829590,330.865082 1920.184570,332.718445 1925.709839,336.307922 
	C1952.469727,353.692291 1981.585938,364.265533 2013.836182,363.904968 
	C2044.391846,363.563324 2071.885742,353.245270 2096.239502,335.188202 
	C2102.684082,330.409729 2108.184082,329.750122 2115.516846,331.465576 
	C2160.616699,342.015961 2196.130615,380.908997 2202.288574,426.428040 
	C2203.085205,432.317078 2203.603027,438.294678 2203.610352,444.232025 
	C2203.699219,515.882202 2203.127686,587.538147 2203.872559,659.180664 
	C2204.313232,701.553040 2157.912109,732.114197 2119.143066,709.954041 
	C2117.790771,709.181152 2116.314697,708.624817 2113.668213,707.398499 
	C2113.668213,712.081543 2113.668213,715.626038 2113.668213,719.170532 
	C2113.668213,806.483887 2113.329346,893.799377 2113.875000,981.109314 
	C2114.038574,1007.271729 2092.620117,1033.307983 2067.713623,1037.222778 
	C2049.078125,1040.152222 2031.950317,1036.939453 2017.504395,1022.501709 
z"/>
<path fill="#15EDA3" opacity="1.000000" stroke="none" 
	d="
M505.666595,1534.000244 
	C505.666595,1699.880127 505.666595,1864.760010 505.666595,2030.313477 
	C443.470398,2030.313477 382.292023,2030.313477 319.667877,2030.313477 
	C319.667877,1935.912109 319.667908,1841.399292 319.667908,1746.886475 
	C319.667877,1652.318481 319.667877,1557.750488 319.667877,1462.075684 
	C247.387070,1462.075684 175.956635,1462.075684 104.102386,1462.075684 
	C104.102386,1408.794434 104.102386,1356.622192 104.102386,1303.740479 
	C309.911835,1303.740479 515.354614,1303.740479 720.846313,1303.740479 
	C722.703918,1310.541504 723.379639,1445.069702 721.492859,1461.700073 
	C650.099915,1461.700073 578.602722,1461.700073 505.666595,1461.700073 
	C505.666595,1486.007935 505.666595,1509.504028 505.666595,1534.000244 
z"/>
<path fill="#15ECA3" opacity="1.000000" stroke="none" 
	d="
M1122.642090,2017.460449 
	C1106.366577,2005.518311 1100.515259,1998.415405 1084.610107,1971.326172 
	C1081.774170,1974.931641 1079.134399,1978.257935 1076.526123,1981.608765 
	C1057.548218,2005.989014 1034.540527,2025.273071 1005.205627,2035.800781 
	C979.577148,2044.998413 953.108032,2048.325195 925.741150,2046.322876 
	C904.019592,2044.733643 882.824463,2041.463989 862.441589,2033.802734 
	C828.014709,2020.862793 800.060303,1999.902222 781.868042,1967.303345 
	C772.182861,1949.948608 767.498718,1931.197754 765.315918,1911.404175 
	C763.010010,1890.493286 765.213135,1870.249146 770.940735,1850.361328 
	C780.086792,1818.603516 800.599609,1794.972656 826.935303,1776.158813 
	C855.520996,1755.737427 888.089905,1744.303711 921.892883,1736.158936 
	C949.400818,1729.530884 977.332581,1725.466675 1005.610779,1724.000122 
	C1019.878784,1723.260132 1034.157349,1722.721069 1048.423950,1721.956909 
	C1052.370850,1721.745605 1056.292114,1721.052734 1061.666016,1720.407959 
	C1061.666016,1713.036133 1062.035767,1705.837036 1061.586426,1698.689331 
	C1060.735352,1685.147827 1060.109131,1671.644043 1055.687622,1658.480713 
	C1049.566772,1640.257812 1037.110229,1630.419922 1018.500732,1628.546997 
	C1006.958435,1627.385254 995.259827,1626.813599 983.814209,1630.267090 
	C969.773254,1634.503418 959.956970,1642.781616 955.832031,1657.368530 
	C952.363159,1669.635620 951.211243,1681.951904 953.923645,1696.038452 
	C896.265625,1685.292114 839.627258,1674.735718 782.290588,1664.049194 
	C780.950195,1645.567139 780.779053,1627.580322 786.956848,1609.978516 
	C798.331848,1577.568481 820.720703,1554.785156 849.792053,1537.891968 
	C885.013062,1517.425293 923.716003,1508.249512 963.730164,1504.165649 
	C982.876465,1502.211548 1002.204041,1501.137695 1021.444275,1501.202148 
	C1052.390503,1501.305786 1083.199829,1503.907715 1113.232178,1512.127563 
	C1171.341553,1528.032104 1209.310425,1564.178223 1224.459595,1623.174316 
	C1230.346558,1646.100342 1233.604736,1669.348755 1233.684082,1693.044434 
	C1233.856812,1744.675171 1233.941162,1796.307617 1234.479736,1847.934937 
	C1234.586060,1858.124390 1235.826538,1868.445435 1237.854614,1878.439819 
	C1241.366943,1895.748901 1250.225830,1903.739014 1271.610352,1903.867310 
	C1278.781372,1903.910278 1285.961426,1902.426392 1294.747437,1901.464111 
	C1284.360596,1947.235596 1274.202759,1991.998291 1264.042114,2036.773804 
	C1241.426636,2040.609253 1219.607178,2041.939087 1197.635010,2040.613037 
	C1178.267456,2039.444336 1159.387695,2035.902954 1141.625000,2027.828369 
	C1135.293579,2024.950317 1129.345215,2021.229004 1122.642090,2017.460449 
M977.906921,1923.286133 
	C986.478088,1922.840820 995.275635,1923.482300 1003.579163,1921.752319 
	C1031.752930,1915.882202 1051.968750,1900.357910 1059.407349,1871.426636 
	C1063.755737,1854.514282 1061.060059,1837.238647 1061.728271,1819.990967 
	C1054.036865,1819.990967 1047.480713,1819.741333 1040.948975,1820.036499 
	C1018.633606,1821.044922 996.581604,1823.952271 975.660461,1832.161377 
	C951.655334,1841.580566 936.480103,1859.149414 938.348999,1886.979004 
	C939.398926,1902.612671 946.781494,1914.071167 961.652954,1919.810547 
	C966.222534,1921.574341 971.299927,1922.022705 977.906921,1923.286133 
z"/>
<path fill="#15ECA2" opacity="1.000000" stroke="none" 
	d="
M1654.864014,2042.769287 
	C1621.271118,2047.904907 1588.473022,2048.148193 1555.562012,2044.674072 
	C1526.955322,2041.654175 1499.190308,2035.433716 1472.686401,2024.124146 
	C1425.298462,2003.903320 1391.164062,1970.126953 1369.597046,1923.386719 
	C1354.519531,1890.710327 1347.065918,1856.248291 1343.507568,1820.605957 
	C1340.652100,1792.003906 1340.713989,1763.375732 1342.599243,1734.874512 
	C1345.447266,1691.818481 1354.485596,1650.037598 1375.687500,1611.799561 
	C1398.264160,1571.082397 1431.181152,1541.749390 1474.244751,1523.967651 
	C1509.088867,1509.579956 1545.578857,1503.659302 1583.097290,1501.783081 
	C1610.824341,1500.396484 1638.291260,1501.684692 1665.547607,1506.135864 
	C1703.022339,1512.255981 1738.617310,1523.752930 1769.116455,1547.475586 
	C1798.949463,1570.680298 1817.754028,1600.643921 1824.127686,1638.221069 
	C1826.766113,1653.776245 1826.689209,1669.276611 1825.184814,1685.950195 
	C1769.402954,1697.256836 1713.450928,1708.598022 1656.595947,1720.122192 
	C1656.595947,1716.555176 1656.113159,1713.317383 1656.680420,1710.275146 
	C1658.983521,1697.922607 1657.850952,1685.687500 1655.110596,1673.676270 
	C1647.635986,1640.914917 1622.217651,1626.362671 1590.079834,1630.555298 
	C1563.698853,1633.997070 1545.976562,1648.911011 1535.743286,1673.334106 
	C1527.020874,1694.151245 1523.151733,1716.010742 1521.839844,1738.287842 
	C1520.687378,1757.855835 1520.035278,1777.516602 1520.532227,1797.101807 
	C1521.104248,1819.645264 1523.114868,1842.183472 1530.045044,1863.877808 
	C1536.617920,1884.453735 1546.766357,1902.701050 1567.774658,1911.534790 
	C1592.458496,1921.914185 1617.318481,1921.421021 1640.634888,1907.649658 
	C1655.532593,1898.850708 1662.396973,1883.826538 1666.012085,1867.441284 
	C1667.351807,1861.369507 1667.624634,1855.062012 1668.473999,1848.126099 
	C1721.683350,1858.623535 1774.659302,1869.074829 1827.687134,1879.536377 
	C1805.077759,1966.039307 1751.137695,2028.841187 1654.864014,2042.769287 
z"/>
<path fill="#15ECA3" opacity="1.000000" stroke="none" 
	d="
M2774.103027,2029.703369 
	C2770.500488,2030.523438 2767.531494,2030.958984 2764.562012,2030.961182 
	C2710.904785,2031.002319 2657.247803,2030.990967 2603.590576,2030.990845 
	C2600.636230,2030.990845 2597.681885,2030.990845 2592.508057,2030.990845 
	C2610.414551,2001.841797 2628.447998,1974.990356 2645.924805,1947.797363 
	C2663.723877,1920.103394 2681.754150,1892.558105 2699.628418,1864.912476 
	C2717.307617,1837.569702 2734.918457,1810.183105 2752.946289,1782.214966 
	C2699.010254,1694.372803 2645.173096,1606.692139 2590.489990,1517.633057 
	C2595.359131,1517.366333 2598.531738,1517.042480 2601.704346,1517.040894 
	C2660.027344,1517.010498 2718.350830,1517.139404 2776.672607,1516.858521 
	C2783.572510,1516.825317 2787.525146,1519.046753 2791.002686,1524.891479 
	C2810.042725,1556.893066 2829.435791,1588.684692 2848.725098,1620.537720 
	C2850.416016,1623.330078 2852.232910,1626.046387 2854.774414,1630.023560 
	C2860.265137,1620.994751 2865.221436,1612.961182 2870.064697,1604.860474 
	C2886.440918,1577.468872 2902.885986,1550.117065 2919.010254,1522.577759 
	C2921.376953,1518.535645 2923.994629,1516.968994 2928.475098,1516.976685 
	C2985.131104,1517.075073 3041.787354,1517.065796 3098.443359,1517.114624 
	C3099.409668,1517.115479 3100.375732,1517.496094 3102.914551,1518.030396 
	C3089.603027,1539.138062 3075.552002,1558.984253 3061.978027,1579.132446 
	C3048.046387,1599.812256 3034.025146,1620.431641 3020.007812,1641.053467 
	C3006.175049,1661.403809 2992.257080,1681.696289 2978.451660,1702.064819 
	C2964.658936,1722.414795 2950.959473,1742.827515 2936.822021,1763.801758 
	C2991.407715,1852.161255 3046.014404,1940.554810 3101.487061,2030.349976 
	C3096.616211,2030.628784 3093.451904,2030.966187 3090.287354,2030.967896 
	C3031.964355,2030.999634 2973.640869,2030.869263 2915.319092,2031.152832 
	C2908.423584,2031.186401 2904.477539,2028.917114 2900.940430,2023.164185 
	C2879.872070,1988.896484 2858.473389,1954.831787 2836.318115,1919.308105 
	C2824.893799,1937.744873 2815.400635,1956.158203 2805.376709,1974.262695 
	C2795.231934,1992.585449 2784.955566,2010.835327 2774.103027,2029.703369 
z"/>
<path fill="#15ECA2" opacity="1.000000" stroke="none" 
	d="
M2111.054199,1882.044434 
	C2115.994141,1897.131836 2123.212402,1903.146362 2136.891113,1903.984253 
	C2149.396484,1904.750244 2159.437988,1898.258301 2164.691895,1885.356689 
	C2170.133057,1871.995728 2172.481445,1857.953857 2172.472656,1842.075806 
	C2214.950195,1856.531372 2256.500977,1871.678955 2299.118164,1886.626465 
	C2298.010742,1891.368896 2297.115234,1895.795776 2295.937500,1900.146118 
	C2289.930664,1922.335449 2282.522217,1944.021118 2271.405518,1964.230957 
	C2249.160889,2004.670776 2215.134521,2029.163330 2169.880859,2037.651733 
	C2131.498779,2044.851196 2092.973633,2044.641968 2055.031250,2035.288452 
	C2016.457642,2025.779541 1985.128418,2004.993164 1963.537231,1970.927734 
	C1950.876099,1950.951660 1943.586548,1928.875244 1940.108887,1905.688110 
	C1937.951538,1891.305298 1936.577637,1876.666870 1936.499023,1862.134277 
	C1936.131348,1794.150024 1936.335693,1726.162598 1936.335693,1658.176392 
	C1936.335693,1654.548706 1936.335815,1650.921143 1936.335815,1646.443359 
	C1915.618164,1646.443359 1895.433960,1646.443359 1875.503662,1646.443359 
	C1873.305176,1638.747559 1872.591187,1533.778442 1874.514893,1517.283447 
	C1895.204712,1517.283447 1916.049805,1517.283447 1938.183594,1517.283447 
	C1941.097778,1493.184204 1941.741211,1469.768433 1943.611694,1446.480103 
	C1945.467041,1423.379761 1946.854614,1400.241821 1948.484131,1376.587891 
	C2002.301514,1376.587891 2055.421875,1376.587891 2109.438965,1376.587891 
	C2109.438965,1423.055664 2109.438965,1469.230591 2109.438965,1516.840088 
	C2125.438232,1516.897705 2140.594238,1516.974121 2155.750244,1517.000732 
	C2171.413818,1517.028198 2187.077148,1517.006958 2202.740723,1517.006958 
	C2218.004395,1517.006958 2233.268311,1517.006958 2249.089600,1517.006958 
	C2249.089600,1560.220093 2249.089600,1602.374634 2249.089600,1645.666992 
	C2202.985596,1645.666992 2156.890137,1645.666992 2109.664307,1645.666992 
	C2109.664307,1649.984009 2109.664551,1653.200562 2109.664551,1656.417114 
	C2109.665771,1726.736206 2109.647949,1797.055420 2109.710205,1867.374512 
	C2109.714355,1872.017090 2110.326660,1876.659302 2111.054199,1882.044434 
z"/>
<path fill="#15ECA3" opacity="1.000000" stroke="none" 
	d="
M1232.000000,746.000000 
	C1174.335327,746.000000 1117.670532,746.065063 1061.005981,745.970886 
	C1035.045288,745.927734 1012.392334,728.966309 1005.260742,704.202393 
	C1004.000549,699.826416 1003.730896,695.041260 1003.728882,690.444763 
	C1003.654846,521.450684 1003.910522,352.455811 1003.358582,183.463531 
	C1003.289368,162.272217 1019.807739,140.168091 1037.020386,133.619659 
	C1044.620728,130.728195 1052.117554,128.942688 1060.276367,128.952652 
	C1146.273193,129.057770 1232.270264,129.018036 1318.267212,129.018265 
	C1322.233521,129.018280 1326.199707,129.018280 1328.955933,129.018280 
	C1332.715088,122.641663 1335.400269,117.014099 1339.069824,112.125465 
	C1343.985718,105.576225 1351.272095,103.066101 1359.294800,103.054321 
	C1399.960083,102.994644 1440.625732,102.913147 1481.290283,103.086159 
	C1495.032227,103.144630 1504.240723,110.353096 1508.761719,123.515999 
	C1509.295044,125.068314 1509.913940,126.591225 1510.828857,129.018265 
	C1514.505249,129.018265 1518.426025,129.018311 1522.346802,129.018250 
	C1608.677124,129.016830 1695.008301,129.222504 1781.337158,128.875031 
	C1804.228394,128.782883 1828.574585,143.910919 1834.427368,168.967880 
	C1835.324585,172.809113 1836.232544,176.768631 1836.246338,180.676590 
	C1836.377197,217.674759 1836.319824,254.673599 1836.292236,291.672241 
	C1836.291260,292.960175 1836.037231,294.247894 1835.826050,296.246429 
	C1818.121216,296.246429 1800.637695,296.246429 1781.666626,296.246429 
	C1781.666626,277.607971 1781.666504,258.737244 1781.666504,239.866547 
	C1781.666504,221.293304 1781.666626,202.720062 1781.666626,183.577789 
	C1540.131348,183.577789 1299.607178,183.577789 1058.375366,183.577789 
	C1058.375366,352.882935 1058.375366,521.970337 1058.375366,691.876221 
	C1061.570923,692.282349 1064.434937,692.888062 1067.314941,692.977051 
	C1141.181885,695.259521 1771.890259,693.886414 1781.804199,691.236084 
	C1781.804199,621.285278 1781.804199,551.095276 1781.804199,480.456757 
	C1800.180054,480.456757 1817.685303,480.456757 1836.333252,480.456757 
	C1836.333252,483.983582 1836.333130,487.200989 1836.333130,490.418365 
	C1836.333252,556.082764 1835.805664,621.753174 1836.559326,687.408875 
	C1836.927734,719.499573 1810.569214,746.218872 1777.976074,746.159363 
	C1596.317871,745.827698 1414.658813,746.000000 1232.000000,746.000000 
z"/>
<path fill="#15ECA2" opacity="1.000000" stroke="none" 
	d="
M2527.667480,1604.000244 
	C2527.667480,1746.539551 2527.667480,1888.078979 2527.667480,2030.312500 
	C2469.863525,2030.312500 2412.739746,2030.312500 2354.973145,2030.312500 
	C2354.973145,1859.618896 2354.973145,1689.222778 2354.973145,1518.774658 
	C2361.711182,1516.548340 2516.289307,1516.046875 2527.667480,1518.450317 
	C2527.667480,1546.506104 2527.667480,1574.753174 2527.667480,1604.000244 
z"/>
<path fill="#15ECA2" opacity="1.000000" stroke="none" 
	d="
M2124.423340,234.198334 
	C2115.956055,284.545471 2078.731689,322.294220 2027.851074,329.295197 
	C1967.844849,337.551819 1916.167114,301.439819 1901.656494,247.474030 
	C1890.343384,205.399658 1899.310791,167.465881 1929.431396,135.960724 
	C1951.755371,112.610588 1979.954956,101.639641 2012.722046,101.656227 
	C2066.012939,101.683205 2116.769287,140.252716 2125.222900,201.571152 
	C2126.650146,211.925034 2124.817383,222.728363 2124.423340,234.198334 
z"/>
<path fill="#15EAA1" opacity="1.000000" stroke="none" 
	d="
M1309.395996,531.549500 
	C1289.821899,544.484070 1270.129761,540.621887 1259.212891,521.861450 
	C1255.172974,514.918823 1253.194092,507.234375 1255.304565,498.967346 
	C1256.390381,494.714050 1255.943604,490.944275 1253.071533,486.892731 
	C1215.977417,434.565796 1179.127930,382.065521 1142.207397,329.615570 
	C1141.448242,328.537109 1140.578247,327.536591 1139.462036,326.122131 
	C1126.220459,327.112488 1115.664185,322.001984 1108.572388,310.457672 
	C1101.766724,299.379456 1101.161377,287.552490 1107.063232,276.235901 
	C1113.137329,264.589111 1123.072266,258.880341 1136.804810,257.694244 
	C1156.577148,255.986435 1175.423218,275.691589 1169.328247,299.433472 
	C1167.995728,304.623840 1168.796021,307.986572 1171.717773,312.134003 
	C1207.511841,362.943542 1243.170044,413.849060 1278.709717,464.836914 
	C1281.649658,469.054871 1284.721680,471.679199 1290.062744,471.053558 
	C1291.674683,470.864716 1293.679199,470.799591 1294.964722,471.573486 
	C1303.585938,476.762939 1309.832397,471.832764 1316.398438,467.128815 
	C1330.184570,457.252106 1344.069946,447.510712 1358.036987,437.891663 
	C1362.083496,435.104858 1364.267212,432.273590 1364.561035,426.770721 
	C1365.619385,406.946899 1382.753784,394.136444 1404.491089,396.012024 
	C1417.269653,397.114594 1434.050171,411.009949 1431.364624,433.094635 
	C1430.740601,438.226776 1431.461792,441.770172 1434.265503,445.745911 
	C1459.341309,481.303406 1484.399902,516.874573 1509.146240,552.661133 
	C1512.407959,557.377991 1515.761230,559.575562 1521.363770,559.080139 
	C1524.304199,558.820129 1527.570312,558.715271 1530.247314,559.719116 
	C1536.257446,561.972717 1540.609131,560.223816 1545.527466,556.487671 
	C1557.173828,547.640564 1569.258057,539.353943 1581.375000,531.150513 
	C1586.145020,527.921082 1588.959229,524.471069 1588.428345,518.241150 
	C1587.340454,505.472565 1600.546997,488.535278 1619.013550,487.016052 
	C1635.586060,485.652588 1649.602295,496.115051 1654.110718,511.816162 
	C1660.575806,534.330811 1641.707397,557.821960 1619.735352,554.948242 
	C1610.589600,553.752075 1603.319824,556.503906 1596.070557,562.096313 
	C1584.497803,571.024048 1572.197510,579.014587 1560.128174,587.289612 
	C1556.371216,589.865479 1554.471313,592.719543 1554.119873,597.717346 
	C1553.123779,611.884460 1544.468506,621.629272 1531.640015,625.405579 
	C1516.243286,629.937866 1505.319946,627.497803 1495.484863,616.093018 
	C1488.569824,608.074280 1485.279663,599.070679 1486.434692,588.640381 
	C1486.907227,584.373474 1485.915283,581.161621 1483.416504,577.625000 
	C1457.540283,541.002991 1431.877441,504.230255 1406.142090,467.508667 
	C1405.386475,466.430481 1404.486572,465.453613 1404.173706,465.068878 
	C1397.316650,463.959778 1391.200317,462.720032 1385.021729,462.114929 
	C1383.018555,461.918732 1380.546387,462.945984 1378.808472,464.158630 
	C1361.353882,476.337860 1343.951050,488.594147 1326.702148,501.061798 
	C1324.536011,502.627502 1322.032471,505.478699 1321.926025,507.835602 
	C1321.484863,517.592346 1316.719116,524.764954 1309.395996,531.549500 
z"/>
<path fill="#15ECA2" opacity="1.000000" stroke="none" 
	d="
M2516.017578,1276.038208 
	C2534.543457,1300.208740 2541.803467,1326.454346 2536.416992,1356.077637 
	C2529.018311,1396.768066 2494.440430,1428.328735 2454.591309,1434.082520 
	C2399.454834,1442.043579 2344.999268,1399.476440 2343.859131,1339.594238 
	C2343.245117,1307.345825 2356.749756,1281.501099 2382.272461,1261.308228 
	C2417.141113,1233.720825 2476.105713,1234.513184 2509.881104,1269.866821 
	C2511.720459,1271.791992 2513.641846,1273.638672 2516.017578,1276.038208 
z"/>
<path fill="#15EAA1" opacity="1.000000" stroke="none" 
	d="
M1362.995361,826.994507 
	C1377.628052,812.361816 1392.265137,798.688599 1405.708740,783.928284 
	C1414.107422,774.707031 1426.638672,776.330078 1434.432617,784.138245 
	C1509.012573,858.855469 1583.927490,933.238525 1658.727295,1007.736450 
	C1664.442261,1013.428284 1666.191528,1022.007019 1663.188110,1028.584106 
	C1659.804321,1035.993652 1652.151611,1040.175781 1643.419434,1038.810059 
	C1640.632935,1038.374268 1637.654663,1037.076538 1635.470337,1035.303223 
	C1630.580200,1031.333008 1625.991089,1026.959106 1621.528198,1022.500610 
	C1556.486572,957.522583 1491.487549,892.501831 1426.467651,827.502136 
	C1424.640259,825.675354 1422.694824,823.966614 1420.507446,821.925781 
	C1418.013428,824.268188 1415.798462,826.236877 1413.707031,828.328979 
	C1347.765869,894.288452 1281.845825,960.269226 1215.880615,1026.204590 
	C1212.363159,1029.720459 1208.621460,1033.048096 1204.734497,1036.150513 
	C1198.366821,1041.232788 1187.520264,1039.791748 1181.276123,1033.281250 
	C1175.098145,1026.839722 1174.280640,1017.077026 1179.529663,1010.565063 
	C1181.193115,1008.501404 1183.243530,1006.748230 1185.127686,1004.863953 
	C1244.249390,945.739990 1303.372559,886.617371 1362.995361,826.994507 
z"/>
<path fill="#000302" opacity="1.000000" stroke="none" 
	d="
M977.025879,1923.179688 
	C971.299927,1922.022705 966.222534,1921.574341 961.652954,1919.810547 
	C946.781494,1914.071167 939.398926,1902.612671 938.348999,1886.979004 
	C936.480103,1859.149414 951.655334,1841.580566 975.660461,1832.161377 
	C996.581604,1823.952271 1018.633606,1821.044922 1040.948975,1820.036499 
	C1047.480713,1819.741333 1054.036865,1819.990967 1061.728271,1819.990967 
	C1061.060059,1837.238647 1063.755737,1854.514282 1059.407349,1871.426636 
	C1051.968750,1900.357910 1031.752930,1915.882202 1003.579163,1921.752319 
	C995.275635,1923.482300 986.478088,1922.840820 977.025879,1923.179688 
z"/>
</svg>