<svg width="322" height="86" viewBox="0 0 322 86" fill="none" xmlns="http://www.w3.org/2000/svg">
<path d="M49.279 83.1933C54.4208 57.7478 73.8222 50.5017 84.8532 49.8812C86.0009 49.8166 86.8965 50.8095 86.7282 51.9466C86.2518 55.165 85.3582 57.9601 84.7023 59.6127C84.4564 60.2325 83.88 60.6475 83.2239 60.7666C67.8922 63.5508 61.5823 75.6776 60.0666 82.4472C59.9129 83.1333 59.455 83.7217 58.7882 83.9444C56.2204 84.8017 53.3467 85.2216 51.2037 85.3993C49.9765 85.5011 49.0351 84.4004 49.279 83.1933Z" fill="white"/>
<path d="M49.279 2.31646C54.4208 27.762 73.8222 35.0081 84.8532 35.6286C86.0009 35.6932 86.8965 34.7003 86.7282 33.5632C86.2518 30.3448 85.3582 27.5497 84.7023 25.8971C84.4564 25.2773 83.88 24.8623 83.2239 24.7432C67.8922 21.959 61.5823 9.83224 60.0666 3.06262C59.9129 2.37653 59.455 1.78808 58.7882 1.56542C56.2204 0.708143 53.3467 0.288206 51.2037 0.11051C49.9765 0.00874541 49.0351 1.10938 49.279 2.31646Z" fill="white"/>
<path d="M37.6902 83.1933C32.5485 57.7478 13.1471 50.5017 2.11599 49.8812C0.968364 49.8166 0.0727177 50.8095 0.241018 51.9466C0.717401 55.165 1.61104 57.9601 2.2669 59.6127C2.51286 60.2325 3.08924 60.6475 3.7453 60.7666C19.077 63.5508 25.3869 75.6776 26.9027 82.4472C27.0563 83.1333 27.5142 83.7217 28.1811 83.9444C30.7489 84.8017 33.6225 85.2216 35.7655 85.3993C36.9927 85.5011 37.9341 84.4004 37.6902 83.1933Z" fill="white"/>
<path d="M37.6902 2.31646C32.5485 27.762 13.1471 35.0081 2.11599 35.6286C0.968364 35.6932 0.0727177 34.7003 0.241018 33.5632C0.717401 30.3448 1.61104 27.5497 2.2669 25.8971C2.51286 25.2773 3.08924 24.8623 3.7453 24.7432C19.077 21.959 25.3869 9.83224 26.9027 3.06262C27.0563 2.37653 27.5142 1.78808 28.1811 1.56542C30.7489 0.708143 33.6225 0.288206 35.7655 0.11051C36.9928 0.00874541 37.9341 1.10938 37.6902 2.31646Z" fill="white"/>
<path d="M43.7289 27.8497C52.229 27.8497 59.1196 34.7403 59.1196 43.2404C59.1196 50.8236 53.6351 57.1253 46.4164 58.3966V38.4191C46.4164 37.709 45.8404 37.1329 45.1303 37.1329H36.1899C34.552 37.1331 33.2242 38.4609 33.2241 40.0988C33.2241 41.159 34.0837 42.0186 35.144 42.0187H40.5532V58.3019C33.577 56.8383 28.3383 50.6516 28.3383 43.2404C28.3383 34.7404 35.2289 27.8497 43.7289 27.8497ZM50.8139 37.1329C49.4647 37.1329 48.3705 38.2271 48.3705 39.5763C48.3707 40.9253 49.4648 42.0187 50.8139 42.0187H51.3022C52.6512 42.0186 53.7453 40.9253 53.7455 39.5763C53.7455 38.2271 52.6514 37.133 51.3022 37.1329H50.8139Z" fill="white"/>
<path d="M104.28 21.592H147.928V28.696H104.28V21.592ZM121.88 27.8H130.392V63H121.88V27.8ZM163.328 63.704C160.171 63.704 157.291 63.0213 154.688 61.656C152.128 60.248 150.08 58.3067 148.544 55.832C147.051 53.3147 146.304 50.4133 146.304 47.128C146.304 43.7573 147.072 40.8347 148.608 38.36C150.144 35.8853 152.213 33.9653 154.816 32.6C157.461 31.192 160.448 30.488 163.776 30.488C167.445 30.488 170.389 31.2347 172.608 32.728C174.869 34.1787 176.512 36.1627 177.536 38.68C178.56 41.1973 179.072 44.0133 179.072 47.128C179.072 49.0053 178.773 50.9253 178.176 52.888C177.579 54.808 176.661 56.6 175.424 58.264C174.187 59.8853 172.565 61.208 170.56 62.232C168.555 63.2133 166.144 63.704 163.328 63.704ZM166.016 57.304C168.533 57.304 170.709 56.8773 172.544 56.024C174.379 55.1707 175.787 53.976 176.768 52.44C177.749 50.904 178.24 49.1333 178.24 47.128C178.24 44.952 177.728 43.1173 176.704 41.624C175.723 40.088 174.315 38.936 172.48 38.168C170.688 37.3573 168.533 36.952 166.016 36.952C162.475 36.952 159.723 37.8907 157.76 39.768C155.797 41.6027 154.816 44.056 154.816 47.128C154.816 49.176 155.285 50.968 156.224 52.504C157.163 53.9973 158.464 55.1707 160.128 56.024C161.835 56.8773 163.797 57.304 166.016 57.304ZM178.24 31.192H186.56V63H178.816C178.816 63 178.752 62.5947 178.624 61.784C178.539 60.9307 178.453 59.864 178.368 58.584C178.283 57.304 178.24 56.0453 178.24 54.808V31.192ZM231.85 50.456C231.637 53.2293 230.741 55.6187 229.162 57.624C227.626 59.6293 225.493 61.1653 222.762 62.232C220.031 63.256 216.789 63.768 213.034 63.768C209.109 63.768 205.589 63.1493 202.474 61.912C199.402 60.632 196.97 58.776 195.178 56.344C193.429 53.8693 192.554 50.8187 192.554 47.192C192.554 43.5653 193.429 40.5147 195.178 38.04C196.97 35.5653 199.402 33.688 202.474 32.408C205.589 31.128 209.109 30.488 213.034 30.488C216.789 30.488 220.01 31.0213 222.698 32.088C225.386 33.112 227.498 34.6053 229.034 36.568C230.613 38.5307 231.53 40.8987 231.786 43.672H224.17C223.445 41.5387 222.101 39.8747 220.138 38.68C218.175 37.4853 215.807 36.888 213.034 36.888C210.815 36.888 208.789 37.272 206.954 38.04C205.162 38.808 203.711 39.96 202.602 41.496C201.535 42.9893 201.002 44.888 201.002 47.192C201.002 49.4533 201.535 51.352 202.602 52.888C203.669 54.3813 205.119 55.512 206.954 56.28C208.789 57.0053 210.815 57.368 213.034 57.368C216.021 57.368 218.453 56.7707 220.33 55.576C222.25 54.3813 223.551 52.6747 224.234 50.456H231.85ZM235.725 31.192H260.429V37.656H235.725V31.192ZM243.917 22.488H252.237V63H243.917V22.488ZM275.251 17.24V24.536H265.587V17.24H275.251ZM266.227 31.192H274.547V63H266.227V31.192ZM318.872 31.192L302.36 48.92L290.456 63H280.28L297.496 44.376L308.76 31.192H318.872ZM280.28 31.192H290.456L302.488 44.248L319.768 63H309.592L297.24 49.112L280.28 31.192Z" fill="white"/>
</svg>
